M48
;Layer_Color=9474304
;FILE_FORMAT=4:4
METRIC
;TYPE=PLATED
T1F00S00C0.6000
T2F00S00C0.7112
T3F00S00C0.9000
T4F00S00C0.9144
T5F00S00C1.0160
T6F00S00C1.3208
%
T01
X00085000Y00060000
X00215000
T02
X00049550Y00078750
X00065800Y00147496
T03
X00110000Y00109200
X00135400
Y00134600
X00110000
Y00160000
X00135400
X00160800
Y00134600
Y00109200
X00186200
Y00134600
Y00160000
T04
X00111900Y00019800
X00137300
X00162700
Y00045200
X00137300
X00111900
X00188100
Y00019800
T05
X00015400Y00015000
X00040800
T06
X00034550Y00123150
Y00161250
M30
