G04 Layer_Color=65535*
%FSLAX44Y44*%
%MOMM*%
G71*
G01*
G75*
%ADD25C,0.1270*%
%ADD26C,0.1800*%
%ADD27C,0.1524*%
%ADD28C,0.2032*%
%ADD29C,0.2000*%
D25*
X64550Y44000D02*
Y47000D01*
X66050Y44000D01*
X63050D02*
X64550Y47000D01*
X63050Y44000D02*
X66050D01*
X63050Y47000D02*
X66050D01*
X64550Y28650D02*
Y41250D01*
X79550Y28650D02*
Y41250D01*
X64550D02*
X79550D01*
X77500Y89000D02*
Y92000D01*
X79000Y89000D01*
X76000D02*
X77500Y92000D01*
X76000Y89000D02*
X79000D01*
X76000Y92000D02*
X79000D01*
X77500Y73650D02*
Y86250D01*
X92500Y73650D02*
Y86250D01*
X77500D02*
X92500D01*
X83436Y155976D02*
Y159024D01*
X91564Y155976D02*
Y159024D01*
X80936Y110976D02*
Y114024D01*
X89064Y110976D02*
Y114024D01*
X133800Y61550D02*
X140800D01*
X144050Y82800D02*
Y93800D01*
X130550Y82800D02*
Y93800D01*
X144050D01*
Y64800D02*
Y73800D01*
X130550Y64800D02*
Y73800D01*
Y64800D02*
X132550Y62800D01*
X132300Y63050D02*
X133800Y61550D01*
X140800D02*
X142550Y63300D01*
X132550Y62800D02*
X142050D01*
X144050Y64800D01*
X108400Y61550D02*
X115400D01*
X118650Y82800D02*
Y93800D01*
X105150Y82800D02*
Y93800D01*
X118650D01*
Y64800D02*
Y73800D01*
X105150Y64800D02*
Y73800D01*
Y64800D02*
X107150Y62800D01*
X106900Y63050D02*
X108400Y61550D01*
X115400D02*
X117150Y63300D01*
X107150Y62800D02*
X116650D01*
X118650Y64800D01*
X167450Y62800D02*
X169450Y64800D01*
X157950Y62800D02*
X167450D01*
X166200Y61550D02*
X167950Y63300D01*
X157700Y63050D02*
X159200Y61550D01*
X155950Y64800D02*
X157950Y62800D01*
X155950Y64800D02*
Y73800D01*
X169450Y64800D02*
Y73800D01*
X155950Y93800D02*
X169450D01*
X155950Y82800D02*
Y93800D01*
X169450Y82800D02*
Y93800D01*
X159200Y61550D02*
X166200D01*
X192850Y62800D02*
X194850Y64800D01*
X183350Y62800D02*
X192850D01*
X191600Y61550D02*
X193350Y63300D01*
X183100Y63050D02*
X184600Y61550D01*
X181350Y64800D02*
X183350Y62800D01*
X181350Y64800D02*
Y73800D01*
X194850Y64800D02*
Y73800D01*
X181350Y93800D02*
X194850D01*
X181350Y82800D02*
Y93800D01*
X194850Y82800D02*
Y93800D01*
X184600Y61550D02*
X191600D01*
X207500Y86250D02*
X222500D01*
Y73650D02*
Y86250D01*
X207500Y73650D02*
Y86250D01*
X206000Y92000D02*
X209000D01*
X206000Y89000D02*
X209000D01*
X206000D02*
X207500Y92000D01*
X209000Y89000D01*
X207500D02*
Y92000D01*
X212500Y41250D02*
X227500D01*
Y28650D02*
Y41250D01*
X212500Y28650D02*
Y41250D01*
X211000Y47000D02*
X214000D01*
X211000Y44000D02*
X214000D01*
X211000D02*
X212500Y47000D01*
X214000Y44000D01*
X212500D02*
Y47000D01*
X210936Y155976D02*
Y159024D01*
X219064Y155976D02*
Y159024D01*
X210936Y110976D02*
Y114024D01*
X219064Y110976D02*
Y114024D01*
X73049Y103750D02*
Y180299D01*
X49D02*
X73049D01*
X49Y103750D02*
Y180299D01*
Y103750D02*
X73049D01*
X49Y146250D02*
X15049Y151250D01*
X49Y176250D02*
X15049Y171250D01*
Y151250D02*
Y171250D01*
X49Y108750D02*
X15049Y113750D01*
X49Y138750D02*
X15049Y133750D01*
Y113750D02*
Y133750D01*
D26*
X124500Y13500D02*
Y51500D01*
X149900Y13500D02*
Y51500D01*
X175300Y13500D02*
Y51500D01*
D27*
X194450Y57900D02*
X200800Y51550D01*
X175400D02*
X181750Y57900D01*
X169050D02*
X175400Y51550D01*
X150000D02*
X156350Y57900D01*
X143650D02*
X150000Y51550D01*
X124600D02*
X130950Y57900D01*
X118250D02*
X124600Y51550D01*
X99200D02*
X105550Y57900D01*
X200800Y13450D02*
Y51550D01*
X194450Y7100D02*
X200800Y13450D01*
X181750Y7100D02*
X194450D01*
X175400Y13450D02*
X181750Y7100D01*
X169050D02*
X175400Y13450D01*
X156350Y7100D02*
X169050D01*
X150000Y13450D02*
X156350Y7100D01*
X143650D02*
X150000Y13450D01*
X130950Y7100D02*
X143650D01*
X124600Y13450D02*
X130950Y7100D01*
X118250D02*
X124600Y13450D01*
X105550Y7100D02*
X118250D01*
X99200Y13450D02*
X105550Y7100D01*
X99200Y13450D02*
Y51550D01*
X105550Y57900D02*
X118250D01*
X130950D02*
X143650D01*
X156350D02*
X169050D01*
X181750D02*
X194450D01*
D28*
X34450Y2300D02*
X47150D01*
X28100Y8650D02*
X34450Y2300D01*
X28100Y21350D02*
X34450Y27700D01*
X21750Y2300D02*
X28100Y8650D01*
X9050Y2300D02*
X21750D01*
X2700Y8650D02*
X9050Y2300D01*
X2700Y21350D02*
X9050Y27700D01*
X21750D01*
X28100Y21350D01*
X53500Y8650D02*
Y21350D01*
X47150Y2300D02*
X53500Y8650D01*
X47150Y27700D02*
X53500Y21350D01*
X34450Y27700D02*
X47150D01*
X2700Y8650D02*
Y21350D01*
D29*
X251105Y12000D02*
X245440D01*
X242607Y14832D01*
X245440Y17665D01*
X251105D01*
X246856D01*
Y12000D01*
X245440Y20497D02*
X249689D01*
X251105Y21913D01*
Y26162D01*
X245440D01*
X251105Y28994D02*
Y33243D01*
X249689Y34659D01*
X248272Y33243D01*
Y30410D01*
X246856Y28994D01*
X245440Y30410D01*
Y34659D01*
X244024Y37492D02*
X242607Y38908D01*
Y41740D01*
X244024Y43156D01*
X245440D01*
X246856Y41740D01*
Y40324D01*
Y41740D01*
X248272Y43156D01*
X249689D01*
X251105Y41740D01*
Y38908D01*
X249689Y37492D01*
X242607Y45989D02*
X251105D01*
Y50237D01*
X249689Y51654D01*
X244024D01*
X242607Y50237D01*
Y45989D01*
X251105Y62983D02*
X242607D01*
X245440Y65816D01*
X242607Y68648D01*
X251105D01*
Y71481D02*
Y74313D01*
Y72897D01*
X245440D01*
Y71481D01*
X253937Y81394D02*
Y82810D01*
X252521Y84227D01*
X245440D01*
Y79978D01*
X246856Y78562D01*
X249689D01*
X251105Y79978D01*
Y84227D01*
X242607Y87059D02*
X251105D01*
X246856D01*
X245440Y88475D01*
Y91308D01*
X246856Y92724D01*
X251105D01*
X244024Y96972D02*
X245440D01*
Y95556D01*
Y98389D01*
Y96972D01*
X249689D01*
X251105Y98389D01*
X245440Y102637D02*
X249689D01*
X251105Y104053D01*
Y108302D01*
X252521D01*
X253937Y106886D01*
Y105470D01*
X251105Y108302D02*
X245440D01*
X242607Y116799D02*
Y111135D01*
X246856D01*
Y113967D01*
Y111135D01*
X251105D01*
X245440Y121048D02*
Y123880D01*
X246856Y125297D01*
X251105D01*
Y121048D01*
X249689Y119632D01*
X248272Y121048D01*
Y125297D01*
X251105Y128129D02*
X245440D01*
Y132378D01*
X246856Y133794D01*
X251105D01*
X245440Y145124D02*
X251105Y147956D01*
X245440Y150788D01*
X251105Y153621D02*
Y156453D01*
Y155037D01*
X242607D01*
X244024Y153621D01*
X251105Y160702D02*
X249689D01*
Y162118D01*
X251105D01*
Y160702D01*
X244024Y167783D02*
X242607Y169199D01*
Y172032D01*
X244024Y173448D01*
X249689D01*
X251105Y172032D01*
Y169199D01*
X249689Y167783D01*
X244024D01*
X78002Y157500D02*
Y167496D01*
X29550Y94998D02*
X39547D01*
X34549Y99996D02*
Y89999D01*
X94550Y45002D02*
X84553D01*
X89552Y40004D02*
Y50001D01*
X94550Y20002D02*
X84553D01*
X17050Y41250D02*
Y46915D01*
X19883Y49747D01*
X22715Y46915D01*
Y41250D01*
Y45499D01*
X17050D01*
X25547Y49747D02*
Y42666D01*
X26964Y41250D01*
X29796D01*
X31212Y42666D01*
Y49747D01*
X34045D02*
X39710Y41250D01*
Y49747D02*
X34045Y41250D01*
X44550Y33752D02*
X37886D01*
X19150D02*
X12486D01*
X15818Y30419D02*
Y37084D01*
M02*
