G04 Layer_Physical_Order=1*
G04 Layer_Color=255*
%FSLAX44Y44*%
%MOMM*%
G71*
G01*
G75*
G04:AMPARAMS|DCode=10|XSize=0.6mm|YSize=0.7mm|CornerRadius=0.075mm|HoleSize=0mm|Usage=FLASHONLY|Rotation=90.000|XOffset=0mm|YOffset=0mm|HoleType=Round|Shape=RoundedRectangle|*
%AMROUNDEDRECTD10*
21,1,0.6000,0.5500,0,0,90.0*
21,1,0.4500,0.7000,0,0,90.0*
1,1,0.1500,0.2750,0.2250*
1,1,0.1500,0.2750,-0.2250*
1,1,0.1500,-0.2750,-0.2250*
1,1,0.1500,-0.2750,0.2250*
%
%ADD10ROUNDEDRECTD10*%
G04:AMPARAMS|DCode=11|XSize=1mm|YSize=0.9mm|CornerRadius=0.1125mm|HoleSize=0mm|Usage=FLASHONLY|Rotation=180.000|XOffset=0mm|YOffset=0mm|HoleType=Round|Shape=RoundedRectangle|*
%AMROUNDEDRECTD11*
21,1,1.0000,0.6750,0,0,180.0*
21,1,0.7750,0.9000,0,0,180.0*
1,1,0.2250,-0.3875,0.3375*
1,1,0.2250,0.3875,0.3375*
1,1,0.2250,0.3875,-0.3375*
1,1,0.2250,-0.3875,-0.3375*
%
%ADD11ROUNDEDRECTD11*%
G04:AMPARAMS|DCode=12|XSize=0.8mm|YSize=0.8mm|CornerRadius=0.1mm|HoleSize=0mm|Usage=FLASHONLY|Rotation=270.000|XOffset=0mm|YOffset=0mm|HoleType=Round|Shape=RoundedRectangle|*
%AMROUNDEDRECTD12*
21,1,0.8000,0.6000,0,0,270.0*
21,1,0.6000,0.8000,0,0,270.0*
1,1,0.2000,-0.3000,-0.3000*
1,1,0.2000,-0.3000,0.3000*
1,1,0.2000,0.3000,0.3000*
1,1,0.2000,0.3000,-0.3000*
%
%ADD12ROUNDEDRECTD12*%
%ADD13C,0.2500*%
%ADD14C,0.5000*%
%ADD15C,1.0000*%
%ADD16P,1.5396X8X202.5*%
%ADD17C,1.5000*%
%ADD18R,1.5000X1.5000*%
%ADD19C,1.8796*%
%ADD20C,2.4000*%
G04:AMPARAMS|DCode=21|XSize=2.4mm|YSize=2.4mm|CornerRadius=0.3mm|HoleSize=0mm|Usage=FLASHONLY|Rotation=180.000|XOffset=0mm|YOffset=0mm|HoleType=Round|Shape=RoundedRectangle|*
%AMROUNDEDRECTD21*
21,1,2.4000,1.8000,0,0,180.0*
21,1,1.8000,2.4000,0,0,180.0*
1,1,0.6000,-0.9000,0.9000*
1,1,0.6000,0.9000,0.9000*
1,1,0.6000,0.9000,-0.9000*
1,1,0.6000,-0.9000,-0.9000*
%
%ADD21ROUNDEDRECTD21*%
%ADD22C,1.0000*%
%ADD23C,1.2700*%
D10*
X72050Y22500D02*
D03*
Y47500D02*
D03*
X85000Y67500D02*
D03*
Y92500D02*
D03*
X215000Y92500D02*
D03*
Y67500D02*
D03*
X220000Y47500D02*
D03*
Y22500D02*
D03*
D11*
X87500Y149000D02*
D03*
Y166000D02*
D03*
X85000Y104000D02*
D03*
Y121000D02*
D03*
X215000Y149000D02*
D03*
Y166000D02*
D03*
Y104000D02*
D03*
Y121000D02*
D03*
D12*
X137300Y69800D02*
D03*
Y86800D02*
D03*
X111900Y69800D02*
D03*
Y86800D02*
D03*
X162700Y86800D02*
D03*
Y69800D02*
D03*
X188100Y86800D02*
D03*
Y69800D02*
D03*
D13*
Y22300D02*
Y28950D01*
X177238Y39812D02*
X188100Y28950D01*
X177238Y39812D02*
Y52809D01*
X122762Y39462D02*
Y58938D01*
X111900Y28600D02*
X122762Y39462D01*
X111900Y22300D02*
Y28600D01*
X85000Y67500D02*
X95050Y77550D01*
X122450D01*
X130200Y69800D01*
X137300D01*
X204200Y78300D02*
X215000Y67500D01*
X178300Y78300D02*
X204200D01*
X169800Y69800D02*
X178300Y78300D01*
X162700Y69800D02*
X169800D01*
X177238Y52809D02*
X188100Y63671D01*
Y69800D01*
X111900Y69800D02*
X122762Y58938D01*
X172500Y112500D02*
X182500Y122500D01*
X172500Y95000D02*
Y112500D01*
X164300Y86800D02*
X172500Y95000D01*
X215000Y142500D02*
Y149000D01*
X195000Y122500D02*
X215000Y142500D01*
X182500Y122500D02*
X195000D01*
X162700Y86800D02*
X164300D01*
X197800Y86800D02*
X215000Y104000D01*
X188100Y86800D02*
X197800D01*
X115000Y122500D02*
X122500Y115000D01*
Y97500D02*
Y115000D01*
Y97500D02*
X133200Y86800D01*
X102500Y122500D02*
X115000D01*
X133200Y86800D02*
X137300D01*
X97500Y101199D02*
X111900Y86800D01*
X97500Y101199D02*
Y108500D01*
X85000Y121000D02*
X97500Y108500D01*
Y127500D02*
X102500Y122500D01*
X97500Y127500D02*
Y153500D01*
X85000Y166000D02*
X97500Y153500D01*
D14*
X75000Y93999D02*
X85000Y104000D01*
X75000Y77500D02*
Y93999D01*
X215000Y166000D02*
X225000Y156000D01*
Y111000D02*
Y156000D01*
X215000Y121000D02*
X225000Y111000D01*
Y82500D02*
Y111000D01*
X85000Y87500D02*
Y92500D01*
X188100Y22300D02*
X220000D01*
X188100Y47700D02*
X214800D01*
X215000Y47500D02*
X220000D01*
X72050Y22500D02*
X111700D01*
X75000Y47500D02*
X111700D01*
X75000Y77500D02*
X85000Y87500D01*
X220000Y47500D02*
X225000Y52500D01*
Y82500D01*
X215000Y92500D02*
X225000Y82500D01*
X75000Y47500D02*
Y77500D01*
X85000Y136700D02*
Y149000D01*
X78588Y130500D02*
X78800D01*
X85000Y136700D01*
X75000Y126912D02*
X78588Y130500D01*
X75000Y93999D02*
Y126912D01*
D15*
X15400Y20000D02*
Y59600D01*
X40000Y157900D02*
X50400D01*
X58300Y150000D01*
X40800Y20000D02*
Y56250D01*
X15400Y59600D02*
X34550Y78750D01*
Y127050D01*
X40800Y56250D02*
X58300Y73750D01*
Y147496D01*
D16*
X188100Y45200D02*
D03*
Y19800D02*
D03*
X162700Y45200D02*
D03*
Y19800D02*
D03*
X137300Y45200D02*
D03*
Y19800D02*
D03*
X111900Y45200D02*
D03*
Y19800D02*
D03*
D17*
X110000Y109200D02*
D03*
X135400D02*
D03*
X110000Y134600D02*
D03*
X135400D02*
D03*
X110000Y160000D02*
D03*
X160800Y109200D02*
D03*
X186200D02*
D03*
X160800Y134600D02*
D03*
X186200D02*
D03*
X160800Y160000D02*
D03*
D18*
X135400D02*
D03*
X186200D02*
D03*
D19*
X40800Y15000D02*
D03*
X15400D02*
D03*
D20*
X34550Y123150D02*
D03*
D21*
Y161250D02*
D03*
D22*
X215000Y60000D02*
D03*
X85000D02*
D03*
D23*
X65800Y147496D02*
D03*
X49550Y78750D02*
D03*
M02*
