G04 Layer_Color=8388736*
%FSLAX44Y44*%
%MOMM*%
G71*
G01*
G75*
G04:AMPARAMS|DCode=30|XSize=0.8032mm|YSize=0.9032mm|CornerRadius=0.1766mm|HoleSize=0mm|Usage=FLASHONLY|Rotation=90.000|XOffset=0mm|YOffset=0mm|HoleType=Round|Shape=RoundedRectangle|*
%AMROUNDEDRECTD30*
21,1,0.8032,0.5500,0,0,90.0*
21,1,0.4500,0.9032,0,0,90.0*
1,1,0.3532,0.2750,0.2250*
1,1,0.3532,0.2750,-0.2250*
1,1,0.3532,-0.2750,-0.2250*
1,1,0.3532,-0.2750,0.2250*
%
%ADD30ROUNDEDRECTD30*%
G04:AMPARAMS|DCode=31|XSize=1.2032mm|YSize=1.1032mm|CornerRadius=0.2141mm|HoleSize=0mm|Usage=FLASHONLY|Rotation=180.000|XOffset=0mm|YOffset=0mm|HoleType=Round|Shape=RoundedRectangle|*
%AMROUNDEDRECTD31*
21,1,1.2032,0.6750,0,0,180.0*
21,1,0.7750,1.1032,0,0,180.0*
1,1,0.4282,-0.3875,0.3375*
1,1,0.4282,0.3875,0.3375*
1,1,0.4282,0.3875,-0.3375*
1,1,0.4282,-0.3875,-0.3375*
%
%ADD31ROUNDEDRECTD31*%
G04:AMPARAMS|DCode=32|XSize=1.0032mm|YSize=1.0032mm|CornerRadius=0.2016mm|HoleSize=0mm|Usage=FLASHONLY|Rotation=270.000|XOffset=0mm|YOffset=0mm|HoleType=Round|Shape=RoundedRectangle|*
%AMROUNDEDRECTD32*
21,1,1.0032,0.6000,0,0,270.0*
21,1,0.6000,1.0032,0,0,270.0*
1,1,0.4032,-0.3000,-0.3000*
1,1,0.4032,-0.3000,0.3000*
1,1,0.4032,0.3000,0.3000*
1,1,0.4032,0.3000,-0.3000*
%
%ADD32ROUNDEDRECTD32*%
%ADD33P,1.7595X8X202.5*%
%ADD34C,1.7032*%
%ADD35R,1.7032X1.7032*%
%ADD36C,2.0828*%
%ADD37C,2.6032*%
G04:AMPARAMS|DCode=38|XSize=2.6032mm|YSize=2.6032mm|CornerRadius=0.4016mm|HoleSize=0mm|Usage=FLASHONLY|Rotation=180.000|XOffset=0mm|YOffset=0mm|HoleType=Round|Shape=RoundedRectangle|*
%AMROUNDEDRECTD38*
21,1,2.6032,1.8000,0,0,180.0*
21,1,1.8000,2.6032,0,0,180.0*
1,1,0.8032,-0.9000,0.9000*
1,1,0.8032,0.9000,0.9000*
1,1,0.8032,0.9000,-0.9000*
1,1,0.8032,-0.9000,-0.9000*
%
%ADD38ROUNDEDRECTD38*%
%ADD39C,1.2032*%
%ADD40C,1.4732*%
D30*
X72050Y22500D02*
D03*
Y47500D02*
D03*
X85000Y67500D02*
D03*
Y92500D02*
D03*
X215000Y92500D02*
D03*
Y67500D02*
D03*
X220000Y47500D02*
D03*
Y22500D02*
D03*
D31*
X87500Y149000D02*
D03*
Y166000D02*
D03*
X85000Y104000D02*
D03*
Y121000D02*
D03*
X215000Y149000D02*
D03*
Y166000D02*
D03*
Y104000D02*
D03*
Y121000D02*
D03*
D32*
X137300Y69800D02*
D03*
Y86800D02*
D03*
X111900Y69800D02*
D03*
Y86800D02*
D03*
X162700Y86800D02*
D03*
Y69800D02*
D03*
X188100Y86800D02*
D03*
Y69800D02*
D03*
D33*
Y45200D02*
D03*
Y19800D02*
D03*
X162700Y45200D02*
D03*
Y19800D02*
D03*
X137300Y45200D02*
D03*
Y19800D02*
D03*
X111900Y45200D02*
D03*
Y19800D02*
D03*
D34*
X110000Y109200D02*
D03*
X135400D02*
D03*
X110000Y134600D02*
D03*
X135400D02*
D03*
X110000Y160000D02*
D03*
X160800Y109200D02*
D03*
X186200D02*
D03*
X160800Y134600D02*
D03*
X186200D02*
D03*
X160800Y160000D02*
D03*
D35*
X135400D02*
D03*
X186200D02*
D03*
D36*
X40800Y15000D02*
D03*
X15400D02*
D03*
D37*
X34550Y123150D02*
D03*
D38*
Y161250D02*
D03*
D39*
X215000Y60000D02*
D03*
X85000D02*
D03*
D40*
X65800Y147496D02*
D03*
X49550Y78750D02*
D03*
M02*
