G04 Layer_Color=16711935*
%FSLAX44Y44*%
%MOMM*%
G71*
G01*
G75*
%ADD33P,1.7595X8X202.5*%
%ADD34C,1.7032*%
%ADD35R,1.7032X1.7032*%
%ADD36C,2.0828*%
%ADD37C,2.6032*%
G04:AMPARAMS|DCode=38|XSize=2.6032mm|YSize=2.6032mm|CornerRadius=0.4016mm|HoleSize=0mm|Usage=FLASHONLY|Rotation=180.000|XOffset=0mm|YOffset=0mm|HoleType=Round|Shape=RoundedRectangle|*
%AMROUNDEDRECTD38*
21,1,2.6032,1.8000,0,0,180.0*
21,1,1.8000,2.6032,0,0,180.0*
1,1,0.8032,-0.9000,0.9000*
1,1,0.8032,0.9000,0.9000*
1,1,0.8032,0.9000,-0.9000*
1,1,0.8032,-0.9000,-0.9000*
%
%ADD38ROUNDEDRECTD38*%
%ADD39C,1.2032*%
%ADD40C,1.4732*%
%ADD41O,0.8032X1.8032*%
D33*
X188100Y45200D02*
D03*
Y19800D02*
D03*
X162700Y45200D02*
D03*
Y19800D02*
D03*
X137300Y45200D02*
D03*
Y19800D02*
D03*
X111900Y45200D02*
D03*
Y19800D02*
D03*
D34*
X110000Y109200D02*
D03*
X135400D02*
D03*
X110000Y134600D02*
D03*
X135400D02*
D03*
X110000Y160000D02*
D03*
X160800Y109200D02*
D03*
X186200D02*
D03*
X160800Y134600D02*
D03*
X186200D02*
D03*
X160800Y160000D02*
D03*
D35*
X135400D02*
D03*
X186200D02*
D03*
D36*
X40800Y15000D02*
D03*
X15400D02*
D03*
D37*
X34550Y123150D02*
D03*
D38*
Y161250D02*
D03*
D39*
X215000Y60000D02*
D03*
X85000D02*
D03*
D40*
X65800Y147496D02*
D03*
X49550Y78750D02*
D03*
D41*
X25950Y97000D02*
D03*
X38650D02*
D03*
X51350D02*
D03*
X64050D02*
D03*
X25950Y43000D02*
D03*
X38650D02*
D03*
X51350D02*
D03*
X64050D02*
D03*
X210950Y152000D02*
D03*
X223650D02*
D03*
X236350D02*
D03*
X249050D02*
D03*
X210950Y98000D02*
D03*
X223650D02*
D03*
X236350D02*
D03*
X249050D02*
D03*
M02*
